<?xml version="1.0" encoding="UTF-8" standalone="no"?>
<svg width="124px" height="30px" viewBox="0 0 124 30" version="1.1" xmlns="http://www.w3.org/2000/svg" xmlns:xlink="http://www.w3.org/1999/xlink">
    <!-- Generator: Sketch 42 (36781) - http://www.bohemiancoding.com/sketch -->
    <title>nourish_logo_dark</title>
    <desc>Created with Sketch.</desc>
    <defs></defs>
    <g id="Page-1" stroke="none" stroke-width="1" fill="none" fill-rule="evenodd">
        <g id="nourish_logo_dark" fill="#2D2D29">
            <path d="M0.00010909091,29.4798545 L0.00010909091,15.6498545 C0.00010909091,13.6480364 0.751745455,11.9069455 2.25665455,10.4265818 C3.66392727,9.05585455 5.42901818,8.37021818 7.55192727,8.37021818 C9.65083636,8.37021818 11.4159273,9.05585455 12.8477455,10.4265818 C14.3521091,11.8824 15.1042909,13.6234909 15.1042909,15.6498545 L15.1042909,29.4798545 L11.4644727,29.4798545 L11.4644727,15.6498545 C11.4644727,14.2545818 11.0853818,13.2324 10.3272,12.5827636 C9.56901818,11.9342182 8.64392727,11.6091273 7.55192727,11.6091273 C6.46047273,11.6091273 5.53483636,11.9342182 4.77665455,12.5827636 C4.01847273,13.2324 3.63938182,14.2545818 3.63938182,15.6498545 L3.63938182,29.4798545 L0.00010909091,29.4798545 Z" id="Fill-1"></path>
            <path d="M56.2312364,8.78296364 L56.2312364,21.8367818 C56.2312364,23.8386 55.4790545,25.5796909 53.9746909,27.0595091 C52.5674182,28.4307818 50.8023273,29.1158727 48.6794182,29.1158727 C46.5805091,29.1158727 44.8148727,28.4307818 43.3836,27.0595091 C41.8792364,25.6036909 41.1270545,23.8626 41.1270545,21.8367818 L41.1270545,8.78296364 L44.7663273,8.78296364 L44.7663273,21.8367818 C44.7663273,23.2315091 45.1459636,24.2536909 45.9041455,24.9033273 C46.6623273,25.5518727 47.5874182,25.8764182 48.6794182,25.8764182 C49.7708727,25.8764182 50.6959636,25.5518727 51.4546909,24.9033273 C52.2123273,24.2536909 52.5919636,23.2315091 52.5919636,21.8367818 L52.5919636,8.78296364 L56.2312364,8.78296364 Z" id="Fill-3"></path>
            <path d="M61.6905273,29.4798545 L61.6905273,15.6498545 C61.6905273,13.6480364 62.4427091,11.9069455 63.9470727,10.4265818 C65.3543455,9.05585455 67.1194364,8.37021818 69.2428909,8.37021818 L71.6243455,8.37021818 L71.6243455,11.6091273 L69.2428909,11.6091273 C68.1508909,11.6091273 67.2258,11.9342182 66.4676182,12.5827636 C65.7094364,13.2324 65.3303455,14.2545818 65.3303455,15.6498545 L65.3303455,29.4798545 L61.6905273,29.4798545 Z" id="Fill-5"></path>
            <path d="M78.0323455,29.4798545 L78.0323455,9.6444 L81.6716182,8.0064 L81.6716182,29.4798545 L78.0323455,29.4798545 Z M78.3050727,4.7124 C77.8807091,4.27549091 77.6685273,3.75130909 77.6685273,3.13821818 C77.6685273,2.52567273 77.8807091,2.00094545 78.3050727,1.56403636 C78.7294364,1.12767273 79.2454364,0.908945455 79.8519818,0.908945455 C80.4585273,0.908945455 80.9739818,1.12767273 81.3988909,1.56403636 C81.8232545,2.00094545 82.0359818,2.52567273 82.0359818,3.13821818 C82.0359818,3.75130909 81.8232545,4.27549091 81.3988909,4.7124 C80.9739818,5.14930909 80.4585273,5.36749091 79.8519818,5.36749091 C79.2454364,5.36749091 78.7294364,5.14930909 78.3050727,4.7124 L78.3050727,4.7124 Z" id="Fill-7"></path>
            <path d="M87.4952182,22.1460545 L91.1344909,22.1460545 C91.1344909,23.5047818 91.5288545,24.5362364 92.3175818,25.2398727 C93.0697636,25.9075091 93.9795818,26.2407818 95.0470364,26.2407818 C96.2846727,26.2407818 97.2490364,25.8464182 97.9406727,25.0576909 C98.6683091,24.2324182 99.0326727,23.3351455 99.0326727,22.3642364 C99.0326727,21.3207818 98.6443091,20.4966 97.8681273,19.8895091 C97.2004909,19.3680545 96.2541273,19.1073273 95.0290364,19.1073273 C92.8695818,19.1073273 91.1650364,18.6338727 89.9154,17.6875091 C88.8114,16.8622364 88.2594,15.5831455 88.2594,13.8475091 C88.2594,12.1615091 89.0295818,10.7667818 90.5704909,9.66223636 C91.7715818,8.80096364 93.2639455,8.37005455 95.0470364,8.37005455 C96.7575818,8.37005455 98.2439455,8.9046 99.5055818,9.97205455 C100.475945,10.8087818 101.076491,11.7791455 101.307218,12.8836909 L97.6674,13.9936909 C97.6674,13.3626 97.4857636,12.8226 97.1219455,12.3736909 C96.5394,11.6215091 95.7081273,11.2456909 94.6286727,11.2456909 C93.7674,11.2456909 93.0664909,11.5156909 92.5270364,12.0551455 C91.9864909,12.5951455 91.7170364,13.1929636 91.7170364,13.8475091 C91.7170364,14.6242364 92.0443091,15.2433273 92.6999455,15.7036909 C93.0637636,15.9584182 93.8399455,16.0866 95.0290364,16.0866 C97.4917636,16.0866 99.3419455,16.6506 100.579582,17.7786 C101.926309,19.0036909 102.5994,20.5991455 102.5994,22.5649636 C102.5994,24.1418727 101.901764,25.6462364 100.506491,27.0775091 C99.1843091,28.4362364 97.3641273,29.1158727 95.0470364,29.1158727 C92.9481273,29.1158727 91.1830364,28.5333273 89.7517636,27.3687818 C88.2468545,26.1436909 87.4952182,24.2815091 87.4952182,22.1460545" id="Fill-9"></path>
            <path d="M108.422782,29.4798545 L108.422782,2.18312727 L111.880418,0.545127273 L112.062055,0.545127273 L112.062055,9.91712727 C112.971873,8.88567273 114.276055,8.37021818 115.9746,8.37021818 C118.073509,8.37021818 119.8386,9.05585455 121.270418,10.4265818 C122.774782,11.8824 123.526964,13.6234909 123.526964,15.6498545 L123.526964,29.4798545 L119.887145,29.4798545 L119.887145,15.6498545 C119.887145,14.2545818 119.508055,13.2324 118.749873,12.5827636 C117.991145,11.9342182 117.0666,11.6091273 115.9746,11.6091273 C114.883145,11.6091273 113.957509,11.9342182 113.199327,12.5827636 C112.441145,13.2324 112.062055,14.2545818 112.062055,15.6498545 L112.062055,29.4798545 L108.422782,29.4798545 Z" id="Fill-11"></path>
            <path d="M32.6698909,7.12423636 C32.6698909,7.12423636 28.8053455,7.13241818 27.0735273,8.86314545 C25.3335273,10.6031455 25.3335273,14.4600545 25.3335273,14.4600545 C25.3335273,14.4600545 29.1909818,14.4600545 30.9304364,12.7206 C32.6617091,10.9887818 32.6698909,7.12423636 32.6698909,7.12423636" id="Fill-14"></path>
            <path d="M33.4113273,10.4268 C33.3846,10.4011636 33.3556909,10.3798909 33.3289636,10.3548 C33.0338727,11.4746182 32.5396909,12.6544364 31.7018727,13.4917091 C31.6767818,13.5168 31.6489636,13.5375273 31.6238727,13.5615273 C31.8911455,14.1271636 32.0280545,14.8209818 32.0280545,15.6495273 L32.0280545,21.8366182 C32.0280545,23.2324364 31.6489636,24.2546182 30.8907818,24.9031636 C30.1326,25.5517091 29.2075091,25.8762545 28.1160545,25.8762545 C27.0240545,25.8762545 26.0984182,25.5517091 25.3407818,24.9031636 C24.5820545,24.2546182 24.2029636,23.2324364 24.2029636,21.8366182 L24.2029636,15.6495273 C24.2029636,15.4035273 24.2193273,15.1728 24.2427818,14.9502545 L24.2427818,14.4604364 C24.2427818,14.0589818 24.2956909,10.7786182 25.8109636,8.68189091 C24.6802364,9.00698182 23.6826,9.5868 22.8202364,10.4268 C21.3158727,11.9071636 20.5636909,13.6477091 20.5636909,15.6495273 L20.5636909,21.8366182 C20.5636909,23.8629818 21.3158727,25.6035273 22.8202364,27.0593455 C24.2515091,28.4306182 26.0166,29.1162545 28.1160545,29.1162545 C30.2389636,29.1162545 32.0035091,28.4306182 33.4113273,27.0593455 C34.9151455,25.5795273 35.6678727,23.8384364 35.6678727,21.8366182 L35.6678727,15.6495273 C35.6678727,13.6231636 34.9151455,11.8826182 33.4113273,10.4268" id="Fill-16"></path>
        </g>
    </g>
</svg>